<?xml version="1.0" encoding="utf-8"?>
<!-- Generator: Adobe Illustrator 18.0.0, SVG Export Plug-In . SVG Version: 6.00 Build 0)  -->
<!DOCTYPE svg PUBLIC "-//W3C//DTD SVG 1.1//EN" "http://www.w3.org/Graphics/SVG/1.1/DTD/svg11.dtd">
<svg version="1.1" id="Layer_1" xmlns="http://www.w3.org/2000/svg" xmlns:xlink="http://www.w3.org/1999/xlink" x="0px" y="0px"
	 viewBox="0 0 256 256" enable-background="new 0 0 256 256" xml:space="preserve">
<g>
	<path d="M125.1,3.7c-32.6,0-59.2,26.6-59.2,59.2c0,32.6,26.6,59.2,59.2,59.2s59.2-26.6,59.2-59.2C184.3,30.3,157.7,3.7,125.1,3.7z"
		/>
	<path fill="#DC9416" d="M166.9,23.8c35.7,53.9-22.2,111.8-76.1,76.1c-3-2-5.5-4.5-7.5-7.5c-35.7-53.9,22.2-111.8,76.1-76.1
		C162.3,18.3,164.9,20.8,166.9,23.8z"/>
	<path fill="#8E3F04" d="M125.1,100.9c-23.6,0-42.8-19.2-42.8-42.8s19.2-42.8,42.8-42.8c23.6,0,42.8,19.2,42.8,42.8
		S148.7,100.9,125.1,100.9z"/>
	<path fill="#F8DC46" d="M125.1,97.9c-21.9,0-39.8-17.8-39.8-39.8s17.8-39.8,39.8-39.8c21.9,0,39.8,17.8,39.8,39.8
		S147,97.9,125.1,97.9z"/>
	<path fill="#DC9416" d="M141.9,55.2c2.4-1.9,7-5.8,3.9-12.6c-3.1-6.8-13.6-7.2-13.6-7.2v-9.2h-6.8v9.2h-4.3v-9.2H115v9.2l-11.6,0.5
		v6.8l7.3,0.2l0,30l-7.3,0.2v7.4l11.4,0.3V90h6.5l-0.1-9.4l4.5,0l0,9.3h6.6v-9.4c0,0,13.8,1.5,16.7-9.8
		C151.8,59.5,141.9,55.2,141.9,55.2z M122.6,40.8c2.8-0.1,5.7-0.2,8.5-0.3c1.1,0,2.2,0.4,3,1.3c1,1.2,1.6,2.7,1.5,4.3
		c-0.1,1.6-0.8,2.8-1.5,3.7c-0.7,0.8-1.7,1.3-2.7,1.3c-2.9,0.1-5.8,0.1-8.7,0.2V40.8z M138.5,64.3c-0.1,2.3-1.5,4.3-3.5,5.3
		c-0.6,0.3-1.2,0.4-1.8,0.4c-3.5,0.1-7,0.2-10.6,0.3V58.5c3.4-0.1,6.8-0.3,10.3-0.4c0.7,0,1.4,0.1,2,0.4
		C137.1,59.5,138.6,61.8,138.5,64.3z"/>
	<path fill="#F8DC46" d="M94.8,21.4L94.8,21.4c0.5,0.6,0.4,1.5-0.1,2c-1.9,1.9-3.3,3.6-4,4.7c-0.5,0.6-1.4,0.8-2,0.4l0,0
		c-0.7-0.5-0.9-1.5-0.4-2.2c0.9-1.1,2.3-2.9,4.3-5C93.2,20.7,94.3,20.7,94.8,21.4z"/>
	<path fill="#F8DC46" d="M124.8,10.3c-0.2,0.5-0.7,0.9-1.3,0.9l0,0c-8.5,0.4-15.4,3.1-20.9,6.6c-0.6,0.4-1.3,0.3-1.8-0.1v0
		c-0.8-0.7-0.7-1.9,0.1-2.5c5.8-3.6,13.2-6.6,22.4-7C124.3,8.2,125.2,9.2,124.8,10.3z"/>
	<path d="M244.8,104c-2,2.1-4.7,4.6-8.5,6.7c-1.2,0.6-2.3,1.2-3.3,1.6c0.1-0.2,0.3-0.5,0.6-0.9c4.4-7.8-0.7-20.5-4.5-29.9
		c-0.5-1.4-1.1-2.7-1.5-3.7c-0.7-1.9-1.2-3.5-1.7-5c-1-3.2-1.7-5.5-3.7-7.2c-2.2-1.9-5.2-2.4-9-2.6c-0.2,0-0.4,0-0.6,0
		c-5.1,0-8.7,2.1-11.1,4.4l-2.9-8.7l-3.3,7.8c-1.6-4.8-4-9.3-5.9-12.6c-1.7-2.9-2.9-4.6-3.7-5.7c-1.9-2.5-3.8-4.4-5.3-5.8
		c0.4,2.5,0.5,6.9-1.7,11.1c-1.9,3.5-4.6,5.2-6.3,6.5c-17.9,13.5-33.9,17.4-46.5,17.6c-0.4,0-0.9,0-1.3,0
		c-24.3,0-41.3-12.1-47.8-17.7c-1.9-1.6-4.7-3.4-6.2-7.1c-2-4.8-0.6-9.7,0.3-12c-2.2,1.7-4.5,3.8-6.8,6.5c-6,6.9-8.8,14.2-10.2,19.1
		l-3.3-7.8l-2.9,8.7c-2.4-2.3-6-4.4-11.1-4.4c-0.2,0-0.4,0-0.6,0c-3.8,0.1-6.8,0.6-9,2.6c-1.9,1.7-2.7,4-3.7,7.2
		c-0.5,1.4-1,3.1-1.7,5c-0.4,1.1-0.9,2.4-1.5,3.7c-3.9,9.7-8.8,21.1-4.5,29.9c0.4,0.7,1.1,2,2.4,3.5c-0.6-0.3-1.3-0.6-2-1
		c-2.5-1.5-3.9-3.5-4.7-4.9c0.1,1.8,0.4,4.2,1,7c0,0.2,0.6,2.8,1.4,5c1.7,5.1,4.8,9.4,7.1,12.1c-0.8-0.1-1.8-0.3-2.9-0.7
		c-2-0.7-3.4-1.8-4.3-2.6c0.7,1.9,1.4,3.7,2,5.6c0.4,1,9.5,25.8,22.2,34.6c6.2,4.3,7.4,13.3,9.1,24.7c2.3,15.9,3.5,19.8,5.5,25.7
		c7.5,21.9,44.6,30.9,67.5,31.9c29.2,1.2,69.1-9.4,76.8-31.8c2-5.8,3.3-9.9,5.5-25.7c1.6-11.4,2.9-20.4,9.1-24.7
		c12.8-8.8,21.8-33.6,22.2-34.6c1.2-3.1,2.4-6.2,3.6-9.4c-1.1,1.2-3,2.9-5.6,4.2c-1.6,0.8-3.1,1.3-4.3,1.6
		c3.4-3.9,7.2-8.7,10.8-14.6C240.8,112.5,243,108,244.8,104z"/>
	<path fill="#8B542C" d="M106.7,111.8c0.1,0.4,0.9,4-0.5,5.6c-0.6,0.7-1.5,1-2.7,1.2c-0.2-2.2-0.7-4.3-1.4-6.3l3-4.3
		C105.6,108.9,106.4,110.5,106.7,111.8z"/>
	<path fill="#C18835" d="M107.8,94.5L99,107c-1.5-1.9-3.3-3.5-5.3-4.9c-3.8-2.6-8.5-4.1-13.6-4.1c-8.6,0-16.2,4.4-20.3,10.8
		c-1.2-2.1-2.1-4.6-2.5-7.1c-0.7-4.1-0.5-8.5,0.7-12.4c0.5-1.8,1.2-3.5,2.1-5.1c0.7-1.3,1.6-2.5,2.6-3.5c6.8-7,19.3-5.7,26.7,2.4
		c1.1,1.2,2,2.5,2.8,4c6.3,11.4,10,13.3,10.1,13.4c-2.9-5.4-3.3-11.5-3.3-11.5C100.4,90.1,103.4,92.4,107.8,94.5z"/>
	<path fill="#C18835" d="M192.1,98.1c-0.2,4.8-1.6,9.5-4.3,13c-0.8,1-1.7,1.9-2.7,2.6l-7.7-4.1c0.5-0.7,1.3-1.6,2.4-2.4
		c0.1-0.1,0.2-0.1,0.3-0.2c2.3-1.5,4.6-1.7,5.7-1.7c-3-0.9-7.3-1.6-11.3,0.3c-2.7,1.3-2.8,2.6-6.9,6.1c-2.1,1.8-6.4,5.5-12.5,7.6
		c-4.1,1.4-8.3,2.9-10.7,0.8c-2.5-2.1-2.4-7.5,0.3-12.9c-1.5,0.5-4.2,1.6-6.6,4.3c-1.2,1.4-2.1,2.8-2.7,4.3
		c-0.6,1.4-0.9,2.7-1.1,3.8c-0.5,3.1-2.8,5.7-5.9,6.4c-0.8,0.2-1.7,0.3-2.7,0.4c-1.9,0.1-3.5-0.3-4.9-0.8c-2.8-1-4.8-3.5-5.1-6.5
		c-0.3-2.2-1.1-5.1-3.4-7.6c-1.4-1.5-2.9-2.5-4.2-3.2c-0.8-0.4-1.6-0.7-2.2-0.8l7.5-10.8c0.4,0.1,0.9,0.2,1.3,0.4
		c2.9,0.8,6.2,1.3,9.8,1.3c13.9,0.1,23.3-7,25.8-9.1c0,0-0.4,6.2-3.3,11.5c0.1-0.1,3.8-2,10.1-13.4c0.7-1.2,1.5-2.4,2.3-3.4
		c6.6-7.9,17.9-9.9,25.2-4.7c0.7,0.5,1.4,1.1,2,1.7c1,1.1,2,2.3,2.7,3.7C191.2,88.4,192.3,93.3,192.1,98.1z"/>
	<path fill="#8B542C" d="M64.8,136.7l-14,20c-0.2-0.3-0.4-0.7-0.5-1.1c-3-8.9-1-18.2-1-18.2l10.5,1c0,0-15.1-6.6-18.1-12
		c-3.1-5.4,1.6-11.3,4.3-13.8c1.6-1.5,7.4-1.8,11.9,0.1c-0.9,2.3-1.4,4.8-1.4,7.4C56.6,126.7,59.8,132.6,64.8,136.7z"/>
	<path fill="#C18835" d="M207.4,126.4c-3.1,5.4-18.1,12-18.1,12l10.5-1c0,0,1.9,8.5-0.6,17.1c-1.5,5-8,6.3-11.3,2.3
		c-1-1.3-2.3-2.5-3.9-3.8c-5.4-4-14.3-7.4-29.1-7.2c0,0-3.9-8.9-7.2-10.1c-3.3-1.2-5.6,1.2-9.3,3.2c-2.9,1.6-10.2,2.5-13.1,2.9
		l0,0.1c0,0-0.2,0-0.5-0.1c-0.4,0-0.7,0.1-0.7,0.1l0-0.2c-1.6-0.2-4.7-0.6-7.5-1.2c-2.2-0.4-4.3-1-5.6-1.7c-3.7-2-6-4.4-9.3-3.2
		c-3.3,1.2-7.2,10.1-7.2,10.1c-19.9-0.3-29.2,5.9-33.5,11.5c-1.3,1.7-3.3,2.5-5.2,2.4c4.6-6.7,9.2-13.3,13.9-20
		c3.2,1.5,6.8,2.4,10.6,2.4c8.8,0,16.5-4.6,20.5-11.3c3.5-1.8,5.5-3.6,5.5-3.6l0.7,4.9l1-1.4l0,0l2.5-3.6c2.6,4,12,4.6,14.3,4.7
		c2.8-0.1,11.4-0.9,13.9-4.6l2.4,3.4l1.2,1.7l0.7-4.9c0,0,8.9,8.4,23.4,6.7c0,0-6.8-1.2-5.8-6c1-4.7,9.5-12.8,16.5-8.9
		c6.9,3.9-0.8,10.1-1,10.3c0,0,0,0,0,0s8.2-1.5,9.1-9.9c1-8.4,15.2-9.3,17.9-6.8c0.3,0.3,0.6,0.6,1,1
		C206.7,116.4,210.1,121.7,207.4,126.4z"/>
	<path fill="#C18835" d="M152.2,149c-0.3,3.8-12.1,8.2-13.7,8.4c-1.6,0.1,3-8.2-2.1-6.5c-5.1,1.8-6.9,7.7-8.9,9.1
		c-1.4,0.9-2.5,1-3,0.9c-0.5,0-1.5-0.1-2.8-0.9c-2.1-1.4-3.8-7.3-8.9-9.1c-5.1-1.8-0.4,6.6-2.1,6.5c-1.6-0.1-13.2-4.4-13.7-8.3
		c0,0,0-0.1,0-0.1c-0.3-3.8,4.9-11.1,7.6-9.9c2.6,1.2,5.8,2.6,10.3,4.5c3.9,1.6,8.5,2.2,9.8,2.3c1.5-0.2,5.9-0.7,9.7-2.3
		c4.5-1.9,7.7-3.3,10.3-4.5c2.1-1,6,3.6,7.2,7.5C152.1,147.4,152.2,148.2,152.2,149z"/>
	<path fill="#C18835" d="M186.7,167.4l-4.7,2.3c0,0-4.3-11.3-17.1-11.3c0,0,0,0,0,0c0.1,0.3,1.2,5.4,2.3,10.5
		c1,4.7-1.1,9.5-5.3,11.8c-7.9,4.5-20.9,9.9-37.5,9.9c-17,0-30.1-5.8-37.9-10.3c-4.5-2.6-6.7-7.8-5.5-12.8c1.2-4.7,3.1-8.9,3.2-9.1
		c0,0,0,0,0,0c-3.6,0-6.6,0.9-8.9,2.2c-6,3.3-8.2,9.1-8.2,9.1l-4.7-2.3c4.7-18.1,30.2-17.9,30.2-17.9c1.8,4.6,10.9,10.3,13.7,10.9
		c2.8,0.6,5.9-0.4,6.8-1.4c0.9-1,1.4-0.4,3.3,1.6c1.5,1.7,6.6,2.7,8.2,2.9c1.7-0.3,6.6-1.2,8.1-2.9c1.9-2.1,2.4-2.7,3.3-1.7
		c0.9,1,4,2.1,6.8,1.4c2.8-0.6,12-6.3,13.7-10.9C156.5,149.5,182,149.3,186.7,167.4z"/>
	<path fill="#C18835" d="M183.7,222.4c-10.3,16.7-30.2,22.6-44.8,24.7c-8.6,1.2-15.3,1.1-17.2,1c-17.9-0.5-47.5-7.1-56.4-25.7
		c-5.4-11.3-5.5-31.7-5.3-33.3c0,0,0-0.1,0-0.1c0.3-2.5,2.3-4.3,4.5-4.7c0.6-0.1,1.3-0.1,1.9,0c1.1,0.2,1.9,0.7,2,0.8
		c0.6,0.4,7.8,3.4,20.1,5.8c9.1,1.8,21,3.3,35.1,3.3c36.8,0,57.6-10.3,58-10.6c0,0,0.4-0.3,1.1-0.5c0.1,0,0.3-0.1,0.4-0.1
		c2-0.4,4.1,0.8,4.6,3C189.9,195.5,190.5,211.4,183.7,222.4z"/>
	<path fill="#C18835" d="M35.9,112c-0.5,0.6-1,0.8-1.5,0.8c-0.6,0-1.2-0.4-1.7-0.9c-1.2-1.2-1.7-3-1.3-4.7c0.5-1.9,1.6-3,3.3-4.3
		c0.7-0.6,1.8-1.8,2.8-3.4c2.1-3.5,3.6-8.9,0.3-14.1c-0.4-0.6-1.8-2.9-3.6-2.8c-1.7,0-3,2.1-4,4.2c-0.8,1.7-1.3,3.4-1.5,4.1
		c-0.8,2.6-1.1,5.6-1.2,6.5c-0.1,1.2-0.2,2.2-0.2,2.9c0.3-0.8,0.8-1.8,1.3-3c0.9-2,1.2-2.6,1.7-3.1c0.7-0.9,1.4-1.9,2.7-2
		c0.1,0,1.4-0.1,1.9,0.6c0.9,1.3-1.5,3.6-4.3,8.9c-2.1,4.1-2.3,6.1-4.4,6.9c-1.1,0.4-2.8,0.5-3.5-0.4c-0.9-1.1,0.4-2.7,1.7-7.9
		c0.6-2.1,1.1-4.7,1.7-8c0-0.1,0-0.2,0.1-0.3c0.2-1.3,0.4-2.7,0.6-4.2c0.9-6.6,2.2-14,6.8-16.1c4.9-2.3,6.5,1.1,9.1,8.8
		c0.4,1.2,0.8,2.5,1.3,3.9C47.4,94.5,38.2,109.2,35.9,112z"/>
	<path fill="#FFFFFF" d="M177.1,174.4l-1.3,0.6l-0.7,0.3c-1,0.4-2.2-0.2-2.3-1.4c-0.4-4-2.2-8-2.2-8.1c0,0,0,0,0,0
		c1,0.3,4.4,1.3,6.5,4.5c0.4,0.7,0.7,1.3,1,1.9C178.3,173.2,177.9,174.1,177.1,174.4z"/>
	<path fill="#FFFFFF" d="M76.5,174.3c0,1.1-1,1.9-2,1.6c-0.1,0-0.3-0.1-0.4-0.1c-0.8-0.2-1.5-0.4-2.3-0.7c-0.7-0.2-1-0.9-0.9-1.5
		c0.2-0.8,0.4-1.6,0.8-2.5c1.7-3.6,5-5,6.1-5.4C77.7,165.7,76.3,170.1,76.5,174.3z"/>
	<path fill="#FFFFFF" d="M176,129.3C176,129.3,176,129.3,176,129.3c-0.9,0.9-2.3,2-4.2,3c-0.3,0.2-0.6,0.3-1,0.4
		c-1.8,0.7-3.4,1-4.5,1.1c-0.7-0.1-1.9-0.4-3.3-1.2c-1.6-0.9-3-2.4-2.5-4.8c0.3-1.5,1.4-3.4,3-5.1c3.3-3.6,8.7-6.4,13.5-3.8
		c0.6,0.4,2.3,1.3,2.7,3.1C180.4,124.3,179,127.2,176,129.3z"/>
	<path fill="#8B542C" d="M207.4,126.4c-3.1,5.4-18.1,12-18.1,12l10.5-1c0,0,1.9,8.5-0.6,17.1c-1.5,5-8,6.3-11.3,2.3
		c-1-1.3-2.3-2.5-3.9-3.8c1.3-1.5,4-5.1,2.3-7.8c-2.3-3.5-24-7.2-24-7.2s4,0,14.2,0c10.2,0,22.6-7.8,27.1-13
		c3.1-3.6,1.7-8.6,0.6-11.4C206.7,116.4,210.1,121.7,207.4,126.4z"/>
	<path fill="#8B542C" d="M185.7,105.2c-3-0.9-7.3-1.6-11.3,0.3c-2.7,1.3-2.8,2.6-6.9,6.1c-2.1,1.8-6.4,5.5-12.5,7.6
		c-4.1,1.4-8.3,2.9-10.7,0.8c-2.5-2.1-2.4-7.5,0.3-12.9c0,0-1,11.3,6,8.7C157.5,113,168.5,93.1,185.7,105.2z"/>
	<path fill="#8B542C" d="M187.8,111c-0.8,1-1.7,1.9-2.7,2.6l-7.7-4.1c0.5-0.7,1.3-1.6,2.4-2.4c0.1-0.1,0.2-0.1,0.3-0.2
		c1.3,0.4,2.8,1,4.4,1.9C185.8,109.5,186.9,110.3,187.8,111z"/>
	<path fill="#8B542C" d="M161.9,180.7c-7.9,4.5-20.9,9.9-37.5,9.9c-17,0-30.1-5.8-37.9-10.3c-4.5-2.6-6.7-7.8-5.5-12.8
		c1.2-4.7,3.1-8.9,3.2-9.1c-0.4,3.4-0.8,11,4,16.3c1.3,1.4,2.6,2.3,4.1,3.3c5,3.3,10,4.8,14.4,5.8c10.9,2.3,20.2,1.6,26.4,1.1
		c4.5-0.4,12.4-1.3,21-4.8c3.3-1.3,4.4-2.1,5.2-2.9c7-6.4,4.1-18.6,5.4-18.7c0.9-0.1,1.1,5,2.3,10.5
		C168.2,173.6,166.1,178.4,161.9,180.7z"/>
	<path fill="#8B542C" d="M152.2,149c-0.3,3.8-12.1,8.2-13.7,8.4c-1.6,0.1,3-8.2-2.1-6.5c-5.1,1.8-6.9,7.7-8.9,9.1
		c-1.4,0.9-2.5,1-3,0.9c-0.5,0-1.5-0.1-2.8-0.9c-2.1-1.4-3.8-7.3-8.9-9.1c-5.1-1.8-0.4,6.6-2.1,6.5c-1.6-0.1-13.2-4.4-13.7-8.3
		c1.9,1.4,6.9,4.9,8.8,3.1c2.4-2.3,2.2-7.4,5.8-6.7c3.6,0.7,7.5,9.7,12.2,10.1c4.6,0.4,8.7-9.3,12.8-9.4c4.1-0.1,6,1.1,6.5,3.9
		c0.5,2.8,5.2,2.4,7.6-0.9c0.6-0.9,1-1.8,1.1-2.7C152.1,147.4,152.2,148.2,152.2,149z"/>
	<path fill="#8B542C" d="M141.1,130.4l-2.9,3.4l-5.6,2.9l-12.3,0.5l-6.1-1.9l-3.8-2.3l-2.4-2.4l2.5-3.6c2.6,4,12,4.6,14.3,4.7
		c2.8-0.1,11.4-0.9,13.9-4.6L141.1,130.4z"/>
	<path d="M110.3,132.9c2.8,1.2,7.4,2.9,13.3,3.2c6.5,0.3,11.6-1.2,14.6-2.3c-1.1,1-6.3,5.3-14.2,5
		C116.3,138.5,111.4,134,110.3,132.9z"/>
	<path fill="#8B542C" d="M107.8,94.5L99,107c-1.5-1.9-3.3-3.5-5.3-4.9l-4.3-18.9c1.1,1.2,2,2.5,2.8,4c6.3,11.4,10,13.3,10.1,13.4
		c-2.9-5.4-3.3-11.5-3.3-11.5C100.4,90.1,103.4,92.4,107.8,94.5z"/>
	<path fill="#8B542C" d="M135.2,115.5c-0.6,1.4-0.9,2.7-1.1,3.8c-0.5,3.1-2.8,5.7-5.9,6.4c-0.8,0.2-1.7,0.3-2.7,0.4
		c-1.9,0.1-3.5-0.3-4.9-0.8c-2.8-1-4.8-3.5-5.1-6.5c-0.3-2.2-1.1-5.1-3.4-7.6c-1.4-1.5-2.9-2.5-4.2-3.2c-0.8-0.4-1.6-0.7-2.2-0.8
		l7.5-10.8c0.4,0.1,0.9,0.2,1.3,0.4c-1,0.9-1.6,2.8-0.1,7.1c2.9,8,1,8,4.9,14.2c3.9,6.2,8.5,6.6,10.7,3.1
		C131.1,119.5,133.3,117.3,135.2,115.5z"/>
	<path fill="#8B542C" d="M116.4,140.6c-2.2-0.4-4.3-1-5.6-1.7c-3.7-2-6-4.4-9.3-3.2c-3.3,1.2-7.2,10.1-7.2,10.1
		c-19.9-0.3-29.2,5.9-33.5,11.5c-1.3,1.7-3.3,2.5-5.2,2.4c4.6-6.7,9.2-13.3,13.9-20c3.2,1.5,6.8,2.4,10.6,2.4
		c8.8,0,16.5-4.6,20.5-11.3c3.5-1.8,5.5-3.6,5.5-3.6l0.7,4.9l1-1.4l2.5,2.3L116.4,140.6z"/>
	<path fill="#8B542C" d="M30.5,101.5c-2.1,4.1-2.3,6.1-4.4,6.9c-1.1,0.4-2.8,0.5-3.5-0.4c-0.9-1.1,0.4-2.7,1.7-7.9
		c0.6-2.1,1.1-4.7,1.7-8c1.5-2.2,3.1-4.1,4.3-5.5c-0.8,1.7-1.3,3.4-1.5,4.1c-0.8,2.6-1.1,5.6-1.2,6.5c-0.1,1.2-0.2,2.2-0.2,2.9
		c0.3-0.8,0.8-1.8,1.3-3c0.9-2,1.2-2.6,1.7-3.1c0.7-0.9,1.4-1.9,2.7-2c0.1,0,1.4-0.1,1.9,0.6C35.7,93.8,33.2,96.1,30.5,101.5z"/>
	<path fill="#8B542C" d="M37.5,99.4c-0.2,3.8-0.9,9.8-3.1,13.4c-0.6,0-1.2-0.4-1.7-0.9c-1.2-1.2-1.7-3-1.3-4.7
		c0.5-1.9,1.6-3,3.3-4.3C35.4,102.3,36.5,101.1,37.5,99.4z"/>
	<g>
		<path fill="#C18835" d="M226.8,108.1c-0.8,0.9-2.4,0.8-3.5,0.4c-2.1-0.8-2.3-2.7-4.4-6.9c-2.7-5.4-5.2-7.7-4.3-8.9
			c0.5-0.7,1.9-0.6,1.9-0.6c1.2,0.1,2,1.1,2.7,2c0.5,0.6,0.8,1.1,1.7,3.1c0.5,1.2,1,2.2,1.3,3c0-0.7-0.1-1.7-0.2-2.9
			c-0.1-0.9-0.4-3.8-1.2-6.5c-0.2-0.7-0.7-2.4-1.5-4.1c-1-2.1-2.3-4.1-4-4.2c-1.8,0-3.2,2.3-3.6,2.8c-3.3,5.2-1.7,10.6,0.3,14.1
			c1,1.7,2.1,2.9,2.8,3.4c1.7,1.3,2.8,2.4,3.3,4.3c0.4,1.7,0,3.5-1.3,4.7c-0.5,0.5-1.1,0.9-1.7,0.9c-0.5,0-1-0.2-1.5-0.8
			c-1.9-2.2-8.2-12.1-8.7-21.3c-0.1-2.3,0.1-4.5,0.8-6.6c0.5-1.4,0.9-2.7,1.3-3.9c2.7-7.7,4.2-11.1,9.1-8.8
			c3.2,1.5,4.8,5.5,5.8,10.1c0.4,2,0.8,4.1,1,6.1c0.2,1.5,0.4,2.9,0.6,4.2c0,0.1,0,0.2,0.1,0.3c0.5,3.3,1.1,5.9,1.7,8
			C226.4,105.3,227.8,107,226.8,108.1z"/>
		<path fill="#8B542C" d="M218.9,101.6c2.1,4.1,2.3,6.1,4.4,6.9c1.1,0.4,2.8,0.5,3.5-0.4c0.9-1.1-0.4-2.7-1.7-7.9
			c-0.6-2.1-1.1-4.7-1.7-8c-1.5-2.2-3.1-4.1-4.3-5.5c0.8,1.7,1.3,3.4,1.5,4.1c0.8,2.6,1.1,5.6,1.2,6.5c0.1,1.2,0.2,2.2,0.2,2.9
			c-0.3-0.8-0.8-1.8-1.3-3c-0.9-2-1.2-2.6-1.7-3.1c-0.7-0.9-1.4-1.9-2.7-2c-0.1,0-1.4-0.1-1.9,0.6
			C213.7,93.9,216.1,96.2,218.9,101.6z"/>
		<path fill="#8B542C" d="M211.9,99.5c0.2,3.8,0.9,9.8,3.1,13.4c0.6,0,1.2-0.4,1.7-0.9c1.2-1.2,1.7-3,1.3-4.7
			c-0.5-1.9-1.6-3-3.3-4.3C214,102.4,212.9,101.2,211.9,99.5z"/>
	</g>
	<path fill="#FFFFFF" d="M91.7,112.1c0,0-5.8,8.8-17.6,12.4c0.3,0.6,0.6,1.2,0.9,1.8c2.2-0.7,5.7-2.1,9.3-4.9
		C88.4,118,90.6,114.3,91.7,112.1z"/>
	<g>
		<path fill="#FFFFFF" d="M74.4,128.2c-0.2,0-0.3-0.1-0.4-0.3c-0.2-1.4-1.5-3.7-2.3-4.5c-0.2-0.2-0.3-0.2-0.3-0.2
			c0,0-0.1,0.2-0.2,0.4c0,0.2-0.2,0.3-0.4,0.3l0,0c-0.2,0-0.4-0.2-0.3-0.4c0.1-0.3,0.2-0.8,0.6-0.9c0.3-0.1,0.6,0,1,0.3
			c0.9,0.9,2.2,3.3,2.5,4.9C74.7,128,74.6,128.2,74.4,128.2L74.4,128.2z"/>
	</g>
	<path fill="#FFFFFF" d="M67.4,111.7c0,0,5.8,8.8,17.6,12.4c-0.3,0.5-0.5,1-0.8,1.6c-2-0.4-4.8-1.3-7.8-3.2
		C71,118.9,68.4,114,67.4,111.7z"/>
	<g>
		<path fill="#FFFFFF" d="M84.7,127.8c0.2,0,0.3-0.1,0.4-0.3c0.2-1.4,1.5-3.7,2.3-4.5c0.2-0.2,0.3-0.2,0.3-0.2c0,0,0.1,0.2,0.2,0.4
			c0,0.2,0.2,0.3,0.4,0.3l0,0c0.2,0,0.4-0.2,0.3-0.4c-0.1-0.3-0.2-0.8-0.6-0.9c-0.3-0.1-0.6,0-1,0.3c-0.9,0.9-2.2,3.3-2.5,4.9
			C84.4,127.7,84.5,127.8,84.7,127.8L84.7,127.8z"/>
	</g>
	<path fill="#FFFFFF" d="M83.8,115.5c0.2-1.2-0.7-2.4-1.5-3c-1.3-1-2.8-0.8-3.5-0.7c-0.6,0.1-1.5,0.2-2.1,0.9
		c-0.6,0.7-0.8,1.4-0.8,1.7c0,0.3-0.1,1,0.2,1.8c0.2,0.6,0.6,0.9,0.9,1.2c0.4,0.5,0.6,0.5,0.7,0.7c0.2,0.3,0.4,0.9,0.1,1.9
		c0.1,0,0.3,0.1,0.5,0.1c0-0.2,0.1-0.4,0.1-0.4c0.1,0.1,0.1,0.3,0.1,0.4c0.1,0,0.3,0.1,0.4,0.1c0-0.2,0.1-0.3,0.1-0.3
		c0.1,0.1,0.1,0.2,0.1,0.3c0.1,0,0.3,0,0.4,0c0-0.2,0.1-0.3,0.1-0.3c0.1,0.1,0.1,0.2,0.1,0.3c0,0,0.1,0,0.1,0c0.1,0,0.2,0,0.2,0
		c0-0.2,0.1-0.3,0.1-0.3c0.1,0.1,0.1,0.2,0.1,0.3c0.1,0,0.3,0,0.4,0c0-0.2,0.1-0.3,0.1-0.3c0.1,0.1,0.1,0.2,0.1,0.3
		c0.1,0,0.3,0,0.4-0.1c0-0.2,0.1-0.3,0.1-0.3c0.1,0.1,0.1,0.2,0.1,0.3c0.1,0,0.3-0.1,0.4-0.1c-0.1-0.3-0.2-0.8-0.1-1.4
		C82.1,117.3,83.6,116.9,83.8,115.5z M80.1,118.8c-0.1,0-0.2-0.3-0.4-0.2c-0.2,0-0.3,0.3-0.4,0.3c-0.1,0-0.1-0.4,0-0.7
		c0-0.1,0.2-0.5,0.4-0.5c0.2,0,0.4,0.4,0.4,0.5C80.2,118.4,80.2,118.7,80.1,118.8z M80.5,116.8c-0.4-0.4-0.4-1,0-1.5
		c0.4-0.4,1-0.4,1.5,0c0.4,0.4,0.4,1,0,1.5C81.6,117.2,80.9,117.2,80.5,116.8z"/>
	<path fill="#FFFFFF" d="M91.6,126.9l0,0.1c-0.1,0.4-0.5,0.6-0.9,0.5l-4.3-1.3l0.4-1.4l4.3,1.3C91.5,126.1,91.7,126.5,91.6,126.9z"
		/>
	<path fill="#FFFFFF" d="M67.2,127.4l0,0.1c0.1,0.4,0.5,0.6,0.9,0.5l4.3-1.3l-0.4-1.4l-4.3,1.3C67.3,126.6,67.1,127,67.2,127.4z"/>
	<path d="M78.8,115.5c0.6,1-0.4,2-1.4,1.4c-0.1-0.1-0.2-0.1-0.2-0.2c-0.6-1,0.4-2,1.4-1.4C78.7,115.3,78.7,115.4,78.8,115.5z"/>
	<rect x="121.3" y="175.4" width="5.3" height="33"/>
	<ellipse cx="124.2" cy="174.7" rx="4.9" ry="4.4"/>
	<ellipse cx="123.7" cy="208.8" rx="4.9" ry="4.4"/>
	<rect x="97.1" y="174.5" width="5.3" height="33"/>
	<ellipse cx="100.1" cy="173.8" rx="4.9" ry="4.4"/>
	<ellipse cx="99.6" cy="207.9" rx="4.9" ry="4.4"/>
	<rect x="146.1" y="173.6" width="5.3" height="33"/>
	<ellipse cx="149" cy="172.9" rx="4.9" ry="4.4"/>
	<ellipse cx="148.5" cy="207" rx="4.9" ry="4.4"/>
	<path d="M173.9,123.5c0,3.3-2.3,6-5.2,6c-1.5,0-2.9-0.8-3.8-2c0.3-0.1,0.6-0.2,0.9-0.3c1.2-0.6,1.9-1.7,1.5-2.4
		c-0.4-0.7-1.6-0.8-2.8-0.2c-0.3,0.1-0.6,0.3-0.8,0.5c-0.1-0.5-0.2-1-0.2-1.6c0-3.3,2.3-6,5.2-6
		C171.6,117.5,173.9,120.2,173.9,123.5z"/>
	<path fill="#8B542C" d="M92.6,149.5c0,0-12.8,2.8-17.3,11.1c-6,3.3-8.2,9.1-8.2,9.1l-4.7-2.3C67.1,149.3,92.6,149.5,92.6,149.5z"/>
	<path opacity="0.5" fill="#FFFEF7" d="M102.9,143.3c0.7-0.5,2-1.1,3.6-1.2c1.3-0.1,2.3,0.3,2.8,0.5c3.9,1.4,5.7,2.5,8.3,3.4
		c2.1,0.7,4.5,1.6,7.5,1.2c1.5-0.2,2.6-0.6,4.8-1.4c3.4-1.3,5.7-2.7,10.4-4.5c1.2-0.5,2.3-0.9,3.6-0.6c1.8,0.4,2.9,1.8,3.4,2.6
		c-1-0.9-2.6-1.9-4.5-1.8c-1.2,0-2,0.4-2.4,0.6c-8.1,3.9-12.2,5.9-15,6.1c-5.2,0.5-10.6-2.5-11.8-2.9
		C109.4,143.7,107.2,142,102.9,143.3z"/>
	<path opacity="0.5" fill="#FFFEF7" d="M191.3,100.3c-1.1-5-3.9-12.1-10.5-15.6c-8.9-4.7-18.9-0.4-22.4,1.4
		c6.6-7.9,17.9-9.9,25.2-4.7c0.7,0.5,1.4,1.1,2,1.7c1,1.1,2,2.3,2.7,3.7C190.4,90.7,191.4,95.6,191.3,100.3z"/>
	<path fill="#DDDDDD" d="M76.5,174.3c0,1.1-1,1.9-2,1.6c-0.1,0-0.3-0.1-0.4-0.1c-0.1-6.4,3.7-10.1,3.7-10.1S76.3,170.1,76.5,174.3z"
		/>
	<path fill="#DDDDDD" d="M175.8,175l-0.7,0.3c-1,0.4-2.2-0.2-2.3-1.4c-0.4-4-2.2-8-2.2-8.1C170.7,166,174.8,169.8,175.8,175z"/>
	<path opacity="0.5" fill="#FFFEF7" d="M221.7,81.6c-2.6-7.1-6.5-9.5-8.3-9.5c-1.9,0-3,2.2-4.8,6.7c-1.2,3.2-3,8.8-3.9,11.9
		c-0.1-2.3,0.1-4.5,0.8-6.6c0.5-1.4,0.9-2.7,1.3-3.9c2.7-7.7,4.2-11.1,9.1-8.8C219.2,73,220.8,77,221.7,81.6z"/>
	<path fill="#DDDDDD" d="M170.8,132.7c-1.8,0.7-3.4,1-4.5,1.1c-0.7-0.1-1.9-0.4-3.3-1.2c-1.6-0.9-3-2.4-2.5-4.8
		c0.3-1.5,1.4-3.4,3-5.1c-0.2,0.3-1.9,3.7-0.3,6.5c0.8,1.4,2.2,2.1,3,2.5C168.1,132.7,169.9,132.7,170.8,132.7z"/>
	<path fill="#DC9416" d="M101.5,207.3c0.1,0.2,0.1,0.4,0.1,0.5c0,1.1-0.9,2-2,2c-1.1,0-2-0.9-2-2c0-0.3,0.1-0.6,0.2-0.9
		c0.3-0.6,0.9-1,1.6-1.1v-30.4c-0.8-0.2-1.5-1-1.5-1.9c0-1.1,0.9-2,2-2c1.1,0,2,0.9,2,2c0,1-0.8,1.8-1.7,1.9V206
		C100.8,206.2,101.3,206.7,101.5,207.3z"/>
	<path fill="#DC9416" d="M125.7,208.9L125.7,208.9c0,1.1-0.9,2-2,2c-1.1,0-2-0.9-2-2c0,0,0,0,0-0.1c0-1,0.8-1.8,1.8-1.9v-30.4
		c-0.8-0.2-1.5-1-1.5-1.9c0-1.1,0.9-2,2-2c1.1,0,2,0.9,2,2c0,1-0.8,1.8-1.7,1.9V207C125.1,207.3,125.7,208,125.7,208.9z"/>
	<path fill="#DC9416" d="M150.7,207.1C150.7,207.1,150.7,207.1,150.7,207.1c0,1.1-0.9,2-2,2c-1.1,0-1.9-0.8-2-1.8c0-0.1,0-0.1,0-0.2
		c0-1,0.8-1.8,1.8-1.9v-30.4c-0.8-0.2-1.5-1-1.5-1.9c0-1.1,0.9-2,2-2c1.1,0,2,0.9,2,2c0,1-0.8,1.8-1.7,1.9v30.4
		C150.1,205.4,150.7,206.2,150.7,207.1z"/>
	<path fill="#8E3F04" d="M101.6,207.9c0,1.1-0.9,2-2,2c-1.1,0-2-0.9-2-2c0-0.3,0.1-0.6,0.2-0.9c0,0.1-0.1,0.8,0.3,1.4
		c0.4,0.6,1.1,0.8,1.6,0.8c0.9-0.1,1.7-0.8,1.8-1.9C101.6,207.5,101.6,207.7,101.6,207.9z"/>
	<path fill="#8E3F04" d="M125.7,208.9c0,1.1-0.9,1.9-2,1.9c-1.1,0-2-0.9-2-2c0,0,0,0,0-0.1c0.3,0.8,1.1,1.3,1.9,1.4
		C124.5,210.3,125.3,209.7,125.7,208.9z"/>
	<path fill="#8E3F04" d="M150.7,207.1c0,1.1-0.9,1.9-2,1.9c-1.1,0-1.9-0.8-2-1.8c0.5,0.8,1.4,1.2,2.3,1.1
		C150.1,208.2,150.7,207.2,150.7,207.1z"/>
	<polygon fill="#F8DC46" points="100.2,185.5 100.2,192.3 99.4,193.7 99.4,187 	"/>
	<path fill="#F8DC46" d="M124.3,181.3v6.8l-0.8,1.1v-6.9C123.7,182,124,181.6,124.3,181.3z"/>
	<polygon fill="#F8DC46" points="149.3,177.2 149.3,181 148.5,181.6 148.5,177.7 	"/>
	<path fill="#F8DC46" d="M149.3,185.1v6.3l-0.8,0.6v-6.2C148.8,185.6,149,185.4,149.3,185.1z"/>
	<path fill="#8B542C" d="M187.8,186c-0.5-2.2-2.6-3.4-4.6-3c0.3,5.7,0.7,26.8-14,40.3c-7.7,7.1-32.4,9.9-46.7,11
		c-9.1,0.7-18.1-2.4-24.8-8.4c16,5.6,29.5-0.6,29.5-0.6c-39.3,5.3-38.6-34.4-38.6-34.4c-12.3-2.4-19.4-5.4-20.1-5.8
		c-0.1-0.1-0.9-0.6-2-0.8c-0.6-0.1-1.3-0.1-1.9,0c-2.2,0.4-4.2,2.1-4.5,4.7c0,0,0,0.1,0,0.1c-0.2,1.6-0.2,22,5.3,33.3
		c8.9,18.6,38.5,25.1,56.4,25.7c0.1,0,0.1,0,0.2,0c0,0,0.1,0,0.1,0c0.1,0,0.1,0,0.2,0c0,0,0.1,0,0.1,0c0,0,0.1,0,0.2,0
		c0.1,0,0.2,0,0.3,0c0,0,0.1,0,0.1,0c0.1,0,0.2,0,0.3,0c0,0,0.1,0,0.1,0c0.3,0,0.7,0,1,0c0,0,0,0,0.1,0c0.1,0,0.3,0,0.4,0
		c0,0,0,0,0.1,0c0.4,0,0.9,0,1.4,0c0,0,0,0,0,0c12.3-0.3,43.6-3.2,57.5-25.7C190.5,211.4,189.9,195.5,187.8,186z"/>
	<path fill="#8B542C" d="M66.7,97.4c5.2-4.3,12-6.3,12-6.3c-15.8,1-21.4,10.7-21.4,10.7c0.4,2.6,1.3,5,2.5,7.1
		c4.1-6.5,11.6-10.8,20.3-10.8c5.1,0,9.8,1.5,13.6,4.1C84.4,94.1,74.1,94.9,66.7,97.4z"/>
	<path d="M43.4,168.3c-1.7,4-3.1,8.6-4,13.9c-3.9,23.2,6.5,42.2,11.2,49.9c-1.3-6-2.4-14.3-1.9-24.1c0.7-11.1,3.3-20,5.6-26.2
		C50.7,177.2,47,172.8,43.4,168.3z"/>
	<path d="M206.9,165.6c1.7,4,3.1,8.6,4,13.9c3.9,23.2-6.5,42.2-11.2,49.9c1.3-6,2.4-14.3,1.9-24.1c-0.7-11.1-3.3-20-5.6-26.2
		C199.6,174.6,203.3,170.1,206.9,165.6z"/>
	<path fill="#D42300" d="M178.4,60.3c-1.4,3.5-2,5.4-3.4,6.4c-2.8,2.1-7.3,1.3-9.6,4c-0.6,0.8-1,1.7-1.6,2.5
		c-2.2,2.7-6.5,2.2-9.2,4.4c-0.8,0.6-1.5,1.5-2.3,2.1c-0.9,0.7-1.9,1.1-2.9,1.5c-5.3,2-10.7,3.6-16.3,4.6c-2.2,0.4-4.4,0.7-6.3,1.7
		s-3.7,2.7-4.1,4.9c-0.4,2.7,1.1,5.8-0.6,7.9c-1.2,1.5-3.7,1.5-5.4,0.6c-0.2-0.1-0.4-0.2-0.6-0.3c-1.4-1-2.6-2.4-3.7-3.7
		c-1.7-1.8-3.7-3.6-4.2-6c-0.3-1.4,0-2.9-0.5-4.2c-0.4-1-1.2-1.8-1.9-2.5c-3.7-3.4-8.2-6-13-7.6c-2.1-0.7-4.2-1.2-6.1-2.2
		c-0.7-0.4-1.3-0.7-1.7-1c-0.2-0.1-0.3-0.2-0.4-0.3c-1.5-1.1-2.7-2-2.8-2c-1.9-1.4-6.7-3-10.8-1.9c-5.6,1.5-6.6,7.3-9.6,6.7
		c-2-0.4-3.1-3.3-3.4-4.8c-0.7-3.5,1.4-6.3,3.2-8.8c1.3-1.7,2.7-3.7,5.1-4.9c0.5-0.2,1-0.5,1.6-0.6c3.1-1,6.1-0.4,7,0.3
		c5,3.5,5.8,6.9,10.3,7.5c2.2,0.3,2.5-0.7,5.6-0.2c1.5,0.2,3.9,0.6,5.8,2.4c1.8,1.8,1.3,3.2,3.2,4.5c1.4,1,3,1,4,1c0.3,0,0.7,0,1,0
		c2.3-0.2,3.4-1.3,6.1-2c3-0.7,5.4-0.3,6.5-0.1c4.7,0.8,5.4,3.2,9,4.2c3.6,1,4.3-0.9,12.3-2.7c9.3-2,11.9-0.2,15.2-3.2
		c2.7-2.4,2-4.5,5-6.2c3.1-1.8,4.8-0.1,8.2-2c3.1-1.7,2.7-3.5,5.8-4.8c2.4-1,5.7-1.2,6.7,0.3C179.9,56.6,179.4,57.9,178.4,60.3z"/>
	<path fill="#D42300" d="M119.5,108c0.8-1,3-1,4.2-0.1c0.2,0.1,0.3,0.4,0.7,0.8c0.9,1.3,1.4,1.9,1.6,2.7c0.1,0.8,0,2-0.8,2.8
		c-0.4,0.4-0.6,0.3-1,0.8c-0.6,0.6-0.3,1-0.9,1.6c-0.4,0.5-0.9,1.1-1.7,1.2c-0.2,0-0.8,0.1-1.3-0.2c-0.1-0.1-0.7-0.4-1-1.7
		c-0.3-1.6,0.4-2.2,0.5-4C120,109.6,118.9,108.8,119.5,108z"/>
</g>
</svg>
